<svg width="24" height="31" viewBox="0 0 51 68" xmlns="http://www.w3.org/2000/svg">
  <path d="M0 23.425 8.81 4.146 34 0l16.48 14.096-3.52 23.321-14.1 11.816-7.98 18.035-22.49-5.804 4.04-20.626 6.74-12.231L0 23.425Z" fill="#fff"/>
  <path d="M9.64 17.931c.4-3.558 6.22-10.676 15.6-10.676 12.18 0 19.54 7.774 19.54 15.444s-7.46 13.785-11.92 14.926c-4.46 1.14-6.65 3.006-7.23 7.152l-11.28-3.901c.63-3.373 3.36-8.02 5.79-9.773 4.35-3.13 10.99-2.243 10.99-8.433 0-1.6-1.98-4.991-5.42-4.991-4.71 0-5.95 4.904-6.12 5.93L9.64 17.931Z" fill="#000"/>
  <path d="m12.32 46.424 12.92 3.86-3.64 11.547-12.83-3.6 3.55-11.807Z" fill="#000"/>
</svg>
