<?xml version="1.0" encoding="UTF-8" standalone="no"?>
<!DOCTYPE svg PUBLIC "-//W3C//DTD SVG 1.1//EN" "http://www.w3.org/Graphics/SVG/1.1/DTD/svg11.dtd">
<svg width="100%" height="100%" viewBox="0 0 200 200" version="1.1" xmlns="http://www.w3.org/2000/svg" xmlns:xlink="http://www.w3.org/1999/xlink" xml:space="preserve" xmlns:serif="http://www.serif.com/" style="fill-rule:evenodd;clip-rule:evenodd;stroke-linecap:round;stroke-linejoin:round;stroke-miterlimit:1.5;">
    <g transform="matrix(3.979592,0,0,3.979592,-295.469388,-293.510204)">
        <path d="M79,75L75,118L117,122L124,83L79,75" style="stroke:black;stroke-width:0.25px;"/>
    </g>
    <g id="face" transform="matrix(1.533121,0,0,1.533121,-45.146537,-54.832553)">
        <g transform="matrix(2.592121,-0.137106,0.137106,2.592121,-178.094131,-146.929299)">
            <circle cx="99" cy="102" r="17" style="fill:url(#_Linear1);stroke:black;stroke-width:0.21px;"/>
        </g>
        <g id="mouth" transform="matrix(2.595745,0,0,2.595745,-158.276596,-155.680851)">
            <g transform="matrix(0.998936,0.046122,-0.046122,0.998936,5.117217,-4.584548)">
                <path d="M84.971,100.991L85.006,100.97C86.304,102.684 89.119,105.409 92.633,106.733C95.153,107.683 96.902,107.567 97.154,107.594C97.622,107.646 98.088,107.713 98.556,107.764L98.254,110.558C97.058,110.429 97.047,110.489 95.883,110.185C89.533,108.526 85.955,102.989 84.971,100.991Z"/>
            </g>
            <g transform="matrix(-0.998936,-0.046122,-0.046122,0.998936,198.910768,4.363041)">
                <path d="M85.015,100.991L84.985,101.009C85.991,103.005 87.646,105.091 89.286,106.552C92.204,109.154 94.877,110.012 96.847,110.414L97.155,107.586C96.544,107.578 91.831,107.737 86.819,102.972C85.749,101.955 85.145,101.161 85.015,100.991Z" style="fill:white;"/>
            </g>
        </g>
        <g id="eyes" transform="matrix(2.5911,-0.15522,0.15522,2.5911,-177.84988,-138.976104)">
            <path d="M109.543,97.509C109.497,97.481 109.329,97.36 108.824,97.127C108.179,96.829 106.982,96.356 105.113,96.601C103.785,96.775 102.608,97.363 102.038,97.77C102.021,97.782 102,97.807 101.971,97.777C101.939,97.742 101.998,97.692 102.012,97.676C102.435,97.187 104.284,95.404 106.73,95.84C106.877,95.866 107.656,96.005 108.479,96.486C108.66,96.592 109.28,96.952 109.982,97.67C109.997,97.686 110.067,97.739 110.034,97.778C110.021,97.794 109.992,97.79 109.973,97.783C109.944,97.771 109.952,97.76 109.65,97.575C109.615,97.553 109.576,97.536 109.544,97.511C109.543,97.51 109.543,97.51 109.543,97.509Z" style="fill:white;"/>
            <g transform="matrix(0.997933,0.06426,0.06426,-0.997933,-21.511024,186.890737)">
                <path d="M108.488,96.467C107.666,95.992 105.402,94.858 102.648,97.065C102.369,97.29 101.984,97.695 101.973,97.721C101.951,97.776 101.973,97.795 102.027,97.779C102.04,97.774 102.267,97.583 102.9,97.272C104.468,96.503 106.359,96.35 107.943,96.817C109.108,97.16 109.951,97.781 109.973,97.783C109.993,97.784 110.021,97.794 110.034,97.778C110.066,97.74 109.997,97.685 109.982,97.67C109.877,97.558 109.265,96.915 108.488,96.467Z"/>
            </g>
        </g>
    </g>
    <defs>
        <linearGradient id="_Linear1" x1="0" y1="0" x2="1" y2="0" gradientUnits="userSpaceOnUse" gradientTransform="matrix(34,0,0,34,82,102)"><stop offset="0" style="stop-color:white;stop-opacity:1"/><stop offset="0.5" style="stop-color:rgb(233,233,233);stop-opacity:1"/><stop offset="0.5" style="stop-color:rgb(9,9,9);stop-opacity:1"/><stop offset="1" style="stop-color:black;stop-opacity:1"/></linearGradient>
    </defs>
</svg>
